# xmcd
#
# Track frame offsets:
#	150
#	10077
#	22977
#	33532
#	42867
#	52935
#	67180
#	75407
#	84095
#	92410
#	102010
#	110977
#	120775
#	129225
#
# Disc length: 1862 seconds
#
# Revision: 0
# Processed by: cddbd v1.5PL3 Copyright (c) Steve Scherf et al.
# Submitted via: audiograbber 1.80
#
DISCID=9807440e
DTITLE=Das Große Berliner Ballhausorchester - So tanzte man in Alt-Berlin (Altb
DTITLE=erliner Melodien von anno dunnemals)
DYEAR=1900
DGENRE=
TTITLE0=Komm, Karlineken, komm
TTITLE1=Ach, Isabella
TTITLE2=Kutschke-Polka
TTITLE3=Puppchen, du bist mein Augenstern
TTITLE4=Das Band zerrissen - Schwiegermutter, leuchte mal
TTITLE5=O Susanna - Hochzeit machen, das ist wunderschön
TTITLE6=Wenn der Vater mit dem Sohne..
TTITLE7=Im Grunewald ist Holzauktion
TTITLE8=Bolle reiste jüngst zu Pfingsten - Freu dich, Fritzchen
TTITLE9=Wir sind die Sänger von Finsterwalde
TTITLE10=Ist denn kein Stuhl da für meine Hulda
TTITLE11=Siehste woll, da kimmt er
TTITLE12=In Rixdorf ist Musike - Denkste denn,  du Berliner Pflanze
TTITLE13=Lampenputzer ist mein Vater
EXTD=
EXTT0=
EXTT1=
EXTT2=
EXTT3=
EXTT4=
EXTT5=
EXTT6=
EXTT7=
EXTT8=
EXTT9=
EXTT10=
EXTT11=
EXTT12=
EXTT13=
PLAYORDER=
